# ProBuilder 4.1.0
# https://unity3d.com/unity/features/worldbuilding/probuilder
# 13.08.2019 13:52:29

mtllib ./Prism.mtl
o Prism

g Prism
v 0 0 0
v -1 0 0
v -0.5 2 0
v -1 0 0.25
v -0.5 2 0.25
v 0 0 0.25

vt 0 0
vt 1 0
vt 0.5 2
vt 0 -0.2425356
vt 0.25 -0.2425356
vt 0 1.819017
vt 0.25 1.819017
vt -1 0
vt -0.5 2
vt -0.25 0
vt -0.25 2.061553
vt 0 2.061553
vt 0 0.25
vt -1 0.25

vn 0 0 -1
vn -0.9701425 0.2425356 0
vn 0 0 1
vn 0.9701425 0.2425356 0
vn 0 -1 0

usemtl ProBuilderDefault
f 1/1/1 2/2/1 3/3/1
f 4/8/3 6/1/3 5/9/3
f 3/6/2 2/4/2 4/5/2
f 4/5/2 5/7/2 3/6/2
f 5/11/4 6/10/4 1/1/4
f 1/1/4 3/12/4 5/11/4
f 4/14/5 2/8/5 1/1/5
f 1/1/5 6/13/5 4/14/5

